<?xml version="1.0" encoding="UTF-8"?>
<svg xmlns="http://www.w3.org/2000/svg" viewBox="0 0 512 512" width="512" height="512"><g id="outline"><path d="M488,448V360a8,8,0,0,0-8-8H465.672A80.1,80.1,0,0,0,480,306.334V296a8,8,0,0,0-8-8V272h8a8,8,0,0,0,0-16h-8a24,24,0,0,0-11.092-20.217A79.631,79.631,0,0,0,480,184V136a79.63,79.63,0,0,0-18.286-50.851,7.942,7.942,0,0,0-1.091-1.261A79.948,79.948,0,0,0,320,136v48a80.22,80.22,0,0,0,.867,11.722c.012.118.027.236.045.353a79.564,79.564,0,0,0,14.5,35.061,7.9,7.9,0,0,0,.973,1.305A79.922,79.922,0,0,0,424,260.317V264a8,8,0,0,0,16,0v-8a7.953,7.953,0,0,1,.639-3.131,80.112,80.112,0,0,0,7.3-4.866c.02,0,.039,0,.059,0a8.009,8.009,0,0,1,8,8v32H328a8,8,0,0,0-8,8v10.334A80.1,80.1,0,0,0,334.328,352H320a8,8,0,0,0-8,8v88H262.35a132.947,132.947,0,0,0,29.97-70.431l3.631-32.685A8,8,0,0,0,288,336H128V248H256a8,8,0,0,0,8-8V208a8,8,0,0,0-8-8H240V184a31.976,31.976,0,0,0-48-27.695V144a8,8,0,0,0-8-8H152a8,8,0,0,0-8,8v56H128V104h50a38.043,38.043,0,0,0,38-38V40a8,8,0,0,0-8-8H176a8,8,0,0,0-8,8V56H128V40a8,8,0,0,0-8-8H24a8,8,0,0,0-8,8V424a8,8,0,0,0,8,8H46.226a132.756,132.756,0,0,0,11.453,16H24a8,8,0,0,0-8,8v32a8,8,0,0,0,8,8H488a8,8,0,0,0,8-8V456A8,8,0,0,0,488,448ZM128,72h48a8,8,0,0,0,8-8V48h16V66a22.025,22.025,0,0,1-22,22H128Zm64,112a16,16,0,0,1,32,0v16H192Zm-32-32h16v48H160Zm-32,64H248v16H128Zm208-80A63.951,63.951,0,0,1,442.245,87.983L336,149.493Zm0,45.493V167.981l117.04-67.76a63.918,63.918,0,0,1,5.633,10.251Zm1.781,17.457L463.266,126.3A64.241,64.241,0,0,1,464,136v11.387L344.829,216.381A63.588,63.588,0,0,1,337.781,198.95Zm103.308,34.069a24.057,24.057,0,0,0-11.643,7.776A63.846,63.846,0,0,1,354.7,229.158L464,165.876V184A63.88,63.88,0,0,1,441.089,233.019ZM336,304H464v2.334A64.107,64.107,0,0,1,444.839,352H355.161A64.107,64.107,0,0,1,336,306.334Zm-8,64H472v80H456V392a8,8,0,0,0-8-8H352a8,8,0,0,0-8,8v56H328Zm112,32v48H360V400ZM192,352h48v16H192Zm0,32h48v16H192ZM96,48h16V416H96ZM64,48H80V416H64ZM32,48H48V416H32ZM65.444,432H120a8,8,0,0,0,8-8V352h48v56a8,8,0,0,0,8,8h64a8,8,0,0,0,8-8V352h23.062l-2.645,23.8A116.981,116.981,0,0,1,240.446,448H79.6A117.31,117.31,0,0,1,65.444,432ZM480,480H32V464H480Z"/></g></svg>
