<?xml version="1.0" encoding="iso-8859-1"?>
<!-- Generator: Adobe Illustrator 18.0.0, SVG Export Plug-In . SVG Version: 6.00 Build 0)  -->
<!DOCTYPE svg PUBLIC "-//W3C//DTD SVG 1.1//EN" "http://www.w3.org/Graphics/SVG/1.1/DTD/svg11.dtd">
<svg version="1.1" id="Capa_1" xmlns="http://www.w3.org/2000/svg" xmlns:xlink="http://www.w3.org/1999/xlink" x="0px" y="0px"
	 viewBox="0 0 208.19 208.19" style="enable-background:new 0 0 208.19 208.19;" xml:space="preserve">
<g>
	<path d="M194.095,0h-180c-3.313,0-6,2.687-6,6v196.19c0,3.313,2.687,6,6,6h180c3.313,0,6-2.687,6-6V6
		C200.095,2.687,197.409,0,194.095,0z M188.095,196.19h-168V12h168V196.19z"/>
	<path d="M62.711,172.301h24.646c3.313,0,6-2.687,6-6v-42.15h19.992c24.333,0,44.13-19.797,44.13-44.131
		c0-24.333-19.797-44.13-44.13-44.13H62.711c-3.314,0-6,2.687-6,6v124.411C56.711,169.614,59.397,172.301,62.711,172.301z
		 M68.711,47.89h44.638c17.717,0,32.13,14.414,32.13,32.131s-14.414,32.13-32.13,32.13H87.357c-3.313,0-6,2.687-6,6v42.15H68.711
		V47.89z"/>
	<path d="M87.357,99.504h25.992c10.744,0,19.484-8.741,19.484-19.484s-8.74-19.484-19.484-19.484H87.357c-3.313,0-6,2.687-6,6
		v26.968C81.357,96.818,84.044,99.504,87.357,99.504z M93.357,72.536h19.992c4.126,0,7.484,3.357,7.484,7.484
		c0,4.126-3.357,7.484-7.484,7.484H93.357V72.536z"/>
</g>
<g>
</g>
<g>
</g>
<g>
</g>
<g>
</g>
<g>
</g>
<g>
</g>
<g>
</g>
<g>
</g>
<g>
</g>
<g>
</g>
<g>
</g>
<g>
</g>
<g>
</g>
<g>
</g>
<g>
</g>
</svg>
