<?xml version="1.0" encoding="iso-8859-1"?>
<!-- Generator: Adobe Illustrator 19.0.0, SVG Export Plug-In . SVG Version: 6.00 Build 0)  -->
<svg version="1.1" id="Capa_1" xmlns="http://www.w3.org/2000/svg" xmlns:xlink="http://www.w3.org/1999/xlink" x="0px" y="0px"
	 viewBox="0 0 496 496" style="enable-background:new 0 0 496 496;" xml:space="preserve">
<g>
	<g>
		<path d="M378.56,0h-69.12L192,83.88V120v8v32H0v40v8v288h48V208h32v169.472c-9.288,3.312-16,12.112-16,22.528v40h112v-40
			c0-10.416-6.712-19.216-16-22.528V208h32v288h48V304h47.304l-15.28,183.336l15.944,1.328L290.024,464h107.944l2.056,24.664
			l15.944-1.328L400.696,304H448v192h48V128v-8V83.88L378.56,0z M32,480H16V208h16V480z M160,424H80v-24c0-4.416,3.592-8,8-8h64
			c4.408,0,8,3.584,8,8V424z M96,376V208h48v168H96z M192,192H16v-16h176V192z M312,17.832V56h16V16h32v40h16V17.832L463.04,80
			H224.96L312,17.832z M224,480h-16V128h16V480z M291.36,448l1.336-16h102.608l1.336,16H291.36z M387.304,336l1.336,16h-89.28
			l1.336-16H387.304z M302.024,320l1.336-16h81.28l1.336,16H302.024z M389.976,368l1.336,16h-94.616l1.336-16H389.976z M392.64,400
			l1.336,16h-99.952l1.336-16H392.64z M400,288H288v-72c0-30.872,25.12-56,56-56s56,25.128,56,56V288z M448,176h-16v16h16v64h-16v16
			h16v16h-32v-72c0-39.704-32.304-72-72-72s-72,32.296-72,72v72h-32v-16h16v-16h-16v-64h16v-16h-16v-48h208V176z M480,480h-16V128
			h16V480z M480,112H208V96h272V112z"/>
	</g>
</g>
<g>
</g>
<g>
</g>
<g>
</g>
<g>
</g>
<g>
</g>
<g>
</g>
<g>
</g>
<g>
</g>
<g>
</g>
<g>
</g>
<g>
</g>
<g>
</g>
<g>
</g>
<g>
</g>
<g>
</g>
</svg>
